<?xml version="1.0" encoding="UTF-8"?>
<!DOCTYPE svg PUBLIC "-//W3C//DTD SVG 1.1//EN" "http://www.w3.org/Graphics/SVG/1.1/DTD/svg11.dtd">
<!-- Creator: CorelDRAW -->
<svg xmlns="http://www.w3.org/2000/svg" xml:space="preserve" width="0.984496in" height="0.984496in" version="1.1" style="shape-rendering:geometricPrecision; text-rendering:geometricPrecision; image-rendering:optimizeQuality; fill-rule:evenodd; clip-rule:evenodd"
viewBox="0 0 230.04 230.04"
 xmlns:xlink="http://www.w3.org/1999/xlink"
 xmlns:xodm="http://www.corel.com/coreldraw/odm/2003">
 <defs>
  <style type="text/css">
   <![CDATA[
    .str0 {stroke:#1C3FAA;stroke-width:9.74;stroke-linecap:round;stroke-linejoin:round;stroke-miterlimit:2.61313}
    .fil0 {fill:#1C3FAA}
    .fil1 {fill:#FEFEFE;fill-rule:nonzero}
   ]]>
  </style>
 </defs>
 <g id="Layer_x0020_1">
  <metadata id="CorelCorpID_0Corel-Layer"/>
  <rect class="fil0 str0" x="4.87" y="4.87" width="220.31" height="220.31" rx="9.74" ry="9.74"/>
  <g id="_1959948405120">
   <path class="fil1" d="M166.29 119.12c-9.44,4.79 -20.41,11.14 -31.56,19.29 9.09,26.97 17.94,53.15 18.18,53.91l39.86 0 -26.47 -73.2zm-29.46 -81.4l0 0 -43.61 0 -45.51 125.75c5.54,-6.98 12.52,-14.79 21.03,-22.62 8.84,-8.12 20,-16.8 33.59,-24.54 6.89,-20.42 12.48,-36.98 12.48,-36.98 0,0 3.78,11.23 8.97,26.6 10.34,-4.19 21.72,-7.64 34.14,-9.93l-21.09 -58.29z"/>
   <path class="fil1" d="M192.76 100.11c0,0 -0.01,0 -0.06,0.01 -2.39,0.73 -79.12,24.29 -116.01,92.19l-39.42 0c0,0 45.21,-92.21 155.48,-92.21z"/>
   <path class="fil1" d="M192.7 100.13c-2.39,0.73 -79.12,24.29 -116.01,92.19l-19.39 0c6.63,-12.6 20.58,-33.76 47.17,-54.78 40.9,-32.37 86.38,-37.24 88.22,-37.41z"/>
  </g>
 </g>
</svg>
