<svg xmlns="http://www.w3.org/2000/svg" xmlns:xlink="http://www.w3.org/1999/xlink" version="1.1" x="0px" y="0px" width="500px" height="421px" viewBox="0 0 500 421" enable-background="new 0 0 500 421" xml:space="preserve">
<g id="BACKGROUND">
</g>
<g id="DESIGNED_BY_FREEPIK">
	<g>
		<g>
			<path fill="#CCE9FF" d="M362.377,246.857c-29.182,8.953,2.281,60.697-34.189,77.316c-24.672,11.246-56.408,3.875-78.131,3.193     c-39.049-1.223-58.498,21.592-101.387,20.947c-41.047-0.613-62.504-49.551-40.582-81.389     c21.92-31.84,20.117-40.512,12.037-60.404c-8.076-19.889-22.553-57.195,17.57-65.189c34.486-6.869,53.641-17.816,67.283-34.648     c13.637-16.83,65.436-64.77,98.83-4.463c15.959,28.816,24.73,38.604,53.867,43.199c29.135,4.6,44.355,38.551,42.877,44.957     C400.553,190.377,401.355,234.9,362.377,246.857z"/>
		</g>
		
	</g>
</g>
</svg>