<svg xmlns="http://www.w3.org/2000/svg" xmlns:xlink="http://www.w3.org/1999/xlink" version="1.1" id="Layer_1" x="0px" y="0px" viewBox="0 0 600 600" style="enable-background:new 0 0 600 600;" xml:space="preserve">
<style type="text/css">
	.st0{fill:#CCE9FF;enable-background:new    ;}
	.st1{fill:#F6A704;}
	.st2{clip-path:url(#SVGID_2_);}
	.st3{fill:#2A94F4;}
	.st4{fill:#0B4870;}
	.st5{fill:#FAB9AF;}
	.st6{fill:#FFE3CA;}
	.st7{fill:#F8B936;}
	.st8{fill:#CCE9FF;}
</style>
<path class="st0" d="M409.25,487.17c2.28-0.59,4.57-1.27,6.78-2.04c32.87-11.43,55.55-38.87,62.14-69.82  c5.23-24.77-1.47-50-14.23-72.37c-12.71-22.32-31.83-41.07-40.38-65.33c-11.99-34.2-20.43-71.86-50.04-100.63  c-33.63-32.7-87.81-49.29-135.76-40.04c-46.79,8.97-65.81,51.92-89.16,84.46c-42.05,58.48-74.31,141.99-38.17,210.58  c43.25,82.17,159.73,79.24,241.98,62.46C371.14,490.62,390.81,491.84,409.25,487.17z"/>



</svg>